# Made in Blockbench 5.1.4
mtllib materials.mtl

o arm
v -0.07152192409400397 0.19371068885296674 2.789401577773559e-17
v -0.08780144075027872 0.10138496200807225 2.988768157421288e-17
v -0.06904821011940643 0.19327450633668963 -0.012499999999999973
v -0.08532772677568119 0.10094877949179512 -0.006249999999999971
v -0.06476306538411206 0.1925189197036164 -0.009150624999999973
v -0.08104258204038682 0.10019319285872189 -0.004575624999999971
v -0.062289351409514526 0.1920827371873393 -0.003349374999999973
v -0.07856886806578928 0.09975701034244476 -0.0016743749999999715
v -0.062289351409514526 0.1920827371873393 0.003349375000000027
v -0.07856886806578928 0.09975701034244476 0.0016743750000000287
v -0.06476306538411206 0.1925189197036164 0.009150625000000029
v -0.08104258204038682 0.10019319285872189 0.0045756250000000285
v -0.06904821011940643 0.19327450633668963 0.012500000000000028
v -0.08532772677568119 0.10094877949179512 0.00625000000000003
v -0.07399563806860152 0.19414687136924388 0.01250000000000003
v -0.09027515472487627 0.10182114452434936 0.00625000000000003
v -0.07828078280389589 0.19490245800231712 0.00915062500000003
v -0.09456029946017064 0.1025767311574226 0.00457562500000003
v -0.08075449677849342 0.19533864051859423 0.003349375000000029
v -0.09703401343476818 0.10301291367369972 0.001674375000000031
v -0.08075449677849342 0.19533864051859423 -0.003349374999999971
v -0.09703401343476818 0.10301291367369972 -0.001674374999999969
v -0.07828078280389589 0.19490245800231712 -0.009150624999999971
v -0.09456029946017064 0.1025767311574226 -0.0045756249999999695
v -0.07399563806860152 0.19414687136924388 -0.012499999999999971
v -0.09027515472487627 0.10182114452434936 -0.006249999999999971
vt 0.39405625 0.354575
vt 0.39188125 0.35624999999999996
vt 0.390625 0.35
vt 0.296738125 0.90625
vt 0.2968196875 0.875
vt 0.34375 0.875
vt 0.3437084375 0.9057415625
vt 0.67313125 0.99375
vt 0.67530625 0.9945875
vt 0.671875 0.996875
vt 0.3953125 0.35167499999999996
vt 0.39405625 0.354575
vt 0.390625 0.35
vt 0.010790625 0.45311875
vt 0.01395 0.45311406249999997
vt 0.0147875 0.4999878125
vt 0.01295625 0.499996875
vt 0.67530625 0.9945875
vt 0.6765625 0.9960375
vt 0.671875 0.996875
vt 0.3953125 0.348325
vt 0.3953125 0.35167499999999996
vt 0.390625 0.35
vt 0.01395 0.45311406249999997
vt 0.0173 0.45311406249999997
vt 0.0164625 0.49998906249999997
vt 0.0147875 0.49998906249999997
vt 0.6765625 0.9960375
vt 0.6765625 0.9977125
vt 0.671875 0.996875
vt 0.39405625 0.345425
vt 0.3953125 0.348325
vt 0.390625 0.35
vt 0.0173 0.45311406249999997
vt 0.020459375 0.45311875
vt 0.01829375 0.5
vt 0.0164625 0.4999846875
vt 0.6765625 0.9977125
vt 0.67530625 0.9991625
vt 0.671875 0.996875
vt 0.39188125 0.34375
vt 0.39405625 0.345425
vt 0.390625 0.35
vt 0.25 0.765575625
vt 0.28125 0.765464375
vt 0.28125 0.81244375
vt 0.2505075 0.8125
vt 0.67530625 0.9991625
vt 0.67313125 1
vt 0.671875 0.996875
vt 0.38936875 0.34375
vt 0.39188125 0.34375
vt 0.390625 0.35
vt 0.09375 0.9375
vt 0.125 0.9375
vt 0.125 1
vt 0.09375 1
vt 0.67313125 1
vt 0.67061875 1
vt 0.671875 0.996875
vt 0.38719375 0.345425
vt 0.38936875 0.34375
vt 0.390625 0.35
vt 0.140488125 0.71875
vt 0.1405696875 0.6875
vt 0.1875 0.6875
vt 0.1874584375 0.7182415625
vt 0.67061875 1
vt 0.66844375 0.9991625
vt 0.671875 0.996875
vt 0.3859375 0.348325
vt 0.38719375 0.345425
vt 0.390625 0.35
vt 0.073290625 0.45311875
vt 0.07645 0.45311406249999997
vt 0.0772875 0.4999878125
vt 0.07545625 0.499996875
vt 0.66844375 0.9991625
vt 0.6671875 0.9977125
vt 0.671875 0.996875
vt 0.3859375 0.35167499999999996
vt 0.3859375 0.348325
vt 0.390625 0.35
vt 0.07645 0.45311406249999997
vt 0.0798 0.45311406249999997
vt 0.0789625 0.49998906249999997
vt 0.0772875 0.49998906249999997
vt 0.6671875 0.9977125
vt 0.6671875 0.9960375
vt 0.671875 0.996875
vt 0.38719375 0.354575
vt 0.3859375 0.35167499999999996
vt 0.390625 0.35
vt 0.0798 0.45311406249999997
vt 0.082959375 0.45311875
vt 0.08079375 0.5
vt 0.0789625 0.4999846875
vt 0.6671875 0.9960375
vt 0.66844375 0.9945875
vt 0.671875 0.996875
vt 0.38936875 0.35624999999999996
vt 0.38719375 0.354575
vt 0.390625 0.35
vt 0 0.671825625
vt 0.03125 0.671714375
vt 0.03125 0.71869375
vt 0.0005075 0.71875
vt 0.66844375 0.9945875
vt 0.67061875 0.99375
vt 0.671875 0.996875
vt 0.39188125 0.35624999999999996
vt 0.38936875 0.35624999999999996
vt 0.390625 0.35
vt 0.09375 0.84375
vt 0.125 0.84375
vt 0.125 0.90625
vt 0.09375 0.90625
vt 0.67061875 0.99375
vt 0.67313125 0.99375
vt 0.671875 0.996875
vn 0.17364817766693072 0.9848077530122081 -2.1265768495757762e-17
vn 0.5935437957733144 -0.14389535467282957 -0.7918332459568661
vn -0.17364817766693072 -0.9848077530122081 2.1265768495757762e-17
vn 0.17364817766693072 0.9848077530122081 -2.1265768495757762e-17
vn 0.9024740249373134 -0.16633901471604953 -0.3973310540301873
vn -0.17364817766693072 -0.9848077530122081 2.1265768495757762e-17
vn 0.17364817766693072 0.9848077530122081 -2.1265768495757762e-17
vn 0.9848077530122081 -0.17364817766693072 -1.2060416625018979e-16
vn -0.17364817766693072 -0.9848077530122081 2.1265768495757762e-17
vn 0.17364817766693072 0.9848077530122081 -2.1265768495757762e-17
vn 0.900193229726271 -0.1784140236780346 0.39726639086386195
vn -0.17364817766693072 -0.9848077530122081 2.1265768495757762e-17
vn 0.17364817766693072 0.9848077530122081 -2.1265768495757762e-17
vn 0.5907052057765512 -0.15772586770552013 0.7913216226826002
vn -0.17364817766693072 -0.9848077530122081 2.1265768495757762e-17
vn 0.17364817766693072 0.9848077530122081 -2.1265768495757762e-17
vn -0.01155090495766061 -0.06550843728651323 0.9977851578566089
vn -0.17364817766693072 -0.9848077530122081 2.1265768495757762e-17
vn 0.17364817766693072 0.9848077530122081 -2.1265768495757762e-17
vn -0.6069638348305408 0.06778653114902189 0.791833245956866
vn -0.17364817766693072 -0.9848077530122081 2.1265768495757762e-17
vn 0.17364817766693072 0.9848077530122081 -2.1265768495757762e-17
vn -0.9049394753383848 0.15235675067928334 0.3973310540301875
vn -0.17364817766693072 -0.9848077530122081 2.1265768495757762e-17
vn 0.17364817766693072 0.9848077530122081 -2.1265768495757762e-17
vn -0.9848077530122081 0.17364817766693072 1.2060416625018979e-16
vn -0.17364817766693072 -0.9848077530122081 2.1265768495757762e-17
vn 0.17364817766693072 0.9848077530122081 -2.1265768495757762e-17
vn -0.9069261252048815 0.14022987595680503 -0.39726639086386223
vn -0.17364817766693072 -0.9848077530122081 2.1265768495757762e-17
vn 0.17364817766693072 0.9848077530122081 -2.1265768495757762e-17
vn -0.6090267468068542 0.05381924515298338 -0.7913216226826
vn -0.17364817766693072 -0.9848077530122081 2.1265768495757762e-17
vn 0.17364817766693072 0.9848077530122081 -2.1265768495757762e-17
vn -0.011550904957660852 -0.06550843728651323 -0.9977851578566089
vn -0.17364817766693072 -0.9848077530122081 2.1265768495757762e-17
usemtl m_f4b4f503-87d7-6933-58d7-43351d66bd6b
f 5/1/1 3/2/1 1/3/1
f 3/4/2 5/5/2 6/6/2 4/7/2
f 4/8/3 6/9/3 2/10/3
f 7/11/4 5/12/4 1/13/4
f 5/14/5 7/15/5 8/16/5 6/17/5
f 6/18/6 8/19/6 2/20/6
f 9/21/7 7/22/7 1/23/7
f 7/24/8 9/25/8 10/26/8 8/27/8
f 8/28/9 10/29/9 2/30/9
f 11/31/10 9/32/10 1/33/10
f 9/34/11 11/35/11 12/36/11 10/37/11
f 10/38/12 12/39/12 2/40/12
f 13/41/13 11/42/13 1/43/13
f 11/44/14 13/45/14 14/46/14 12/47/14
f 12/48/15 14/49/15 2/50/15
f 15/51/16 13/52/16 1/53/16
f 13/54/17 15/55/17 16/56/17 14/57/17
f 14/58/18 16/59/18 2/60/18
f 17/61/19 15/62/19 1/63/19
f 15/64/20 17/65/20 18/66/20 16/67/20
f 16/68/21 18/69/21 2/70/21
f 19/71/22 17/72/22 1/73/22
f 17/74/23 19/75/23 20/76/23 18/77/23
f 18/78/24 20/79/24 2/80/24
f 21/81/25 19/82/25 1/83/25
f 19/84/26 21/85/26 22/86/26 20/87/26
f 20/88/27 22/89/27 2/90/27
f 23/91/28 21/92/28 1/93/28
f 21/94/29 23/95/29 24/96/29 22/97/29
f 22/98/30 24/99/30 2/100/30
f 25/101/31 23/102/31 1/103/31
f 23/104/32 25/105/32 26/106/32 24/107/32
f 24/108/33 26/109/33 2/110/33
f 3/111/34 25/112/34 1/113/34
f 25/114/35 3/115/35 4/116/35 26/117/35
f 26/118/36 4/119/36 2/120/36