# Made in Blockbench 5.1.4
mtllib materials.mtl

o leg
v -0.02624999999999997 0.07187500000000002 0
v -0.026249999999999964 0.015625 0
v -0.02876187499999997 0.07187500000000002 0.01875
v -0.028761874999999965 0.015625 0.00625
v -0.03311312499999997 0.07187500000000002 0.01372625
v -0.033113124999999966 0.015625 0.004575625
v -0.03562499999999997 0.07187500000000002 0.00502375
v -0.03562499999999996 0.015625 0.001674375
v -0.03562499999999997 0.07187500000000002 -0.00502375
v -0.03562499999999996 0.015625 -0.001674375
v -0.03311312499999997 0.07187500000000002 -0.01372625
v -0.033113124999999966 0.015625 -0.004575625
v -0.02876187499999997 0.07187500000000002 -0.01875
v -0.028761874999999965 0.015625 -0.00625
v -0.02373812499999997 0.07187500000000002 -0.01875
v -0.023738124999999964 0.015625 -0.00625
v -0.01938687499999997 0.07187500000000002 -0.01372625
v -0.019386874999999963 0.015625 -0.004575625
v -0.016874999999999973 0.07187500000000002 -0.00502375
v -0.016874999999999966 0.015625 -0.001674375
v -0.016874999999999973 0.07187500000000002 0.00502375
v -0.016874999999999966 0.015625 0.001674375
v -0.01938687499999997 0.07187500000000002 0.01372625
v -0.019386874999999963 0.015625 0.004575625
v -0.02373812499999997 0.07187500000000002 0.01875
v -0.023738124999999964 0.015625 0.00625
vt 0.58155625 0.3912375
vt 0.57938125 0.39375000000000004
vt 0.578125 0.384375
vt 0.4740084375 0.9717671875
vt 0.47733125 0.97164875
vt 0.4817959375 0.9997921875
vt 0.479741875 0.9999809375
vt 0.64188125 0.36875
vt 0.64405625 0.36958749999999996
vt 0.640625 0.37187499999999996
vt 0.5828125 0.38688750000000005
vt 0.58155625 0.3912375
vt 0.578125 0.384375
vt 0.47733125 0.97164875
vt 0.4818625 0.971638125
vt 0.4835375 0.9997625
vt 0.48179375 0.9997790625
vt 0.64405625 0.36958749999999996
vt 0.6453125 0.3710375
vt 0.640625 0.37187499999999996
vt 0.5828125 0.3818625
vt 0.5828125 0.38688750000000005
vt 0.578125 0.384375
vt 0.4818625 0.971638125
vt 0.4868875 0.971638125
vt 0.4852125 0.999763125
vt 0.4835375 0.999763125
vt 0.6453125 0.3710375
vt 0.6453125 0.3727125
vt 0.640625 0.37187499999999996
vt 0.58155625 0.37751250000000003
vt 0.5828125 0.3818625
vt 0.578125 0.384375
vt 0.4868875 0.971638125
vt 0.49141875 0.97164875
vt 0.486956875 0.9997915625
vt 0.485213125 0.99975
vt 0.6453125 0.3727125
vt 0.64405625 0.37416249999999995
vt 0.640625 0.37187499999999996
vt 0.57938125 0.375
vt 0.58155625 0.37751250000000003
vt 0.578125 0.384375
vt 0.49141875 0.97164875
vt 0.4947415625 0.9717665625
vt 0.4890128125 1
vt 0.4869603125 0.9997709375
vt 0.64405625 0.37416249999999995
vt 0.64188125 0.375
vt 0.640625 0.37187499999999996
vt 0.57686875 0.375
vt 0.57938125 0.375
vt 0.578125 0.384375
vt 0.34375 0.96875
vt 0.375 0.96875
vt 0.375 1
vt 0.34375 1
vt 0.64188125 0.375
vt 0.63936875 0.375
vt 0.640625 0.37187499999999996
vt 0.57469375 0.37751250000000003
vt 0.57686875 0.375
vt 0.578125 0.384375
vt 0.1302584375 0.5030171875
vt 0.13358125 0.50289875
vt 0.1380459375 0.5310421875
vt 0.135991875 0.5312309375
vt 0.63936875 0.375
vt 0.63719375 0.37416249999999995
vt 0.640625 0.37187499999999996
vt 0.5734375 0.3818625
vt 0.57469375 0.37751250000000003
vt 0.578125 0.384375
vt 0.13358125 0.50289875
vt 0.1381125 0.502888125
vt 0.1397875 0.5310125
vt 0.13804375 0.5310290625
vt 0.63719375 0.37416249999999995
vt 0.6359375 0.3727125
vt 0.640625 0.37187499999999996
vt 0.5734375 0.38688750000000005
vt 0.5734375 0.3818625
vt 0.578125 0.384375
vt 0.1381125 0.502888125
vt 0.1431375 0.502888125
vt 0.1414625 0.531013125
vt 0.1397875 0.531013125
vt 0.6359375 0.3727125
vt 0.6359375 0.3710375
vt 0.640625 0.37187499999999996
vt 0.57469375 0.3912375
vt 0.5734375 0.38688750000000005
vt 0.578125 0.384375
vt 0.1431375 0.502888125
vt 0.14766875 0.50289875
vt 0.143206875 0.5310415625
vt 0.141463125 0.531
vt 0.6359375 0.3710375
vt 0.63719375 0.36958749999999996
vt 0.640625 0.37187499999999996
vt 0.57686875 0.39375000000000004
vt 0.57469375 0.3912375
vt 0.578125 0.384375
vt 0.14766875 0.50289875
vt 0.1509915625 0.5030165625
vt 0.1452628125 0.53125
vt 0.1432103125 0.5310209375
vt 0.63719375 0.36958749999999996
vt 0.63936875 0.36875
vt 0.640625 0.37187499999999996
vt 0.57938125 0.39375000000000004
vt 0.57686875 0.39375000000000004
vt 0.578125 0.384375
vt 0.125 0.625
vt 0.15625 0.625
vt 0.15625 0.65625
vt 0.125 0.65625
vt 0.63936875 0.36875
vt 0.64188125 0.36875
vt 0.640625 0.37187499999999996
vn -1.2246467991473532e-16 1 0
vn -0.7516365951525764 -0.10590639005639366 0.651019404758925
vn 1.2246467991473532e-16 -1 0
vn -1.2246467991473532e-16 1 0
vn -0.9606473860858581 -0.016510462706785422 0.2772796498620412
vn 1.2246467991473532e-16 -1 0
vn -1.2246467991473532e-16 1 0
vn -1 -1.2246467991473532e-16 0
vn 1.2246467991473532e-16 -1 0
vn -1.2246467991473532e-16 1 0
vn -0.9598021402003668 -0.04506754870747007 -0.27703567950770414
vn 1.2246467991473532e-16 -1 0
vn -1.2246467991473532e-16 1 0
vn -0.7480124544744521 -0.14397342368336896 -0.6478804065751602
vn 1.2246467991473532e-16 -1 0
vn -1.2246467991473532e-16 1 0
vn 2.6566319080518708e-17 -0.21693045781865608 -0.9761870601839528
vn 1.2246467991473532e-16 -1 0
vn -1.2246467991473532e-16 1 0
vn 0.7516365951525764 -0.10590639005639346 -0.651019404758925
vn 1.2246467991473532e-16 -1 0
vn -1.2246467991473532e-16 1 0
vn 0.9606473860858581 -0.016510462706785186 -0.2772796498620412
vn 1.2246467991473532e-16 -1 0
vn -1.2246467991473532e-16 1 0
vn 1 1.2246467991473532e-16 0
vn 1.2246467991473532e-16 -1 0
vn -1.2246467991473532e-16 1 0
vn 0.9598021402003668 -0.04506754870746983 0.27703567950770414
vn 1.2246467991473532e-16 -1 0
vn -1.2246467991473532e-16 1 0
vn 0.7480124544744521 -0.1439734236833688 0.6478804065751602
vn 1.2246467991473532e-16 -1 0
vn -1.2246467991473532e-16 1 0
vn 2.6566319080518708e-17 -0.21693045781865608 0.9761870601839528
vn 1.2246467991473532e-16 -1 0
usemtl m_f4b4f503-87d7-6933-58d7-43351d66bd6b
f 5/1/1 3/2/1 1/3/1
f 3/4/2 5/5/2 6/6/2 4/7/2
f 4/8/3 6/9/3 2/10/3
f 7/11/4 5/12/4 1/13/4
f 5/14/5 7/15/5 8/16/5 6/17/5
f 6/18/6 8/19/6 2/20/6
f 9/21/7 7/22/7 1/23/7
f 7/24/8 9/25/8 10/26/8 8/27/8
f 8/28/9 10/29/9 2/30/9
f 11/31/10 9/32/10 1/33/10
f 9/34/11 11/35/11 12/36/11 10/37/11
f 10/38/12 12/39/12 2/40/12
f 13/41/13 11/42/13 1/43/13
f 11/44/14 13/45/14 14/46/14 12/47/14
f 12/48/15 14/49/15 2/50/15
f 15/51/16 13/52/16 1/53/16
f 13/54/17 15/55/17 16/56/17 14/57/17
f 14/58/18 16/59/18 2/60/18
f 17/61/19 15/62/19 1/63/19
f 15/64/20 17/65/20 18/66/20 16/67/20
f 16/68/21 18/69/21 2/70/21
f 19/71/22 17/72/22 1/73/22
f 17/74/23 19/75/23 20/76/23 18/77/23
f 18/78/24 20/79/24 2/80/24
f 21/81/25 19/82/25 1/83/25
f 19/84/26 21/85/26 22/86/26 20/87/26
f 20/88/27 22/89/27 2/90/27
f 23/91/28 21/92/28 1/93/28
f 21/94/29 23/95/29 24/96/29 22/97/29
f 22/98/30 24/99/30 2/100/30
f 25/101/31 23/102/31 1/103/31
f 23/104/32 25/105/32 26/106/32 24/107/32
f 24/108/33 26/109/33 2/110/33
f 3/111/34 25/112/34 1/113/34
f 25/114/35 3/115/35 4/116/35 26/117/35
f 26/118/36 4/119/36 2/120/36