# Made in Blockbench 5.1.4
mtllib materials.mtl

o arm
v 0.07152192409400397 0.19371068885296674 0
v 0.08780144075027872 0.10138496200807225 0
v 0.06904821011940643 0.19327450633668963 0.0125
v 0.08532772677568119 0.10094877949179512 0.00625
v 0.06476306538411206 0.1925189197036164 0.009150625
v 0.08104258204038682 0.10019319285872189 0.004575625
v 0.062289351409514526 0.1920827371873393 0.003349375
v 0.07856886806578928 0.09975701034244476 0.001674375
v 0.062289351409514526 0.1920827371873393 -0.003349375
v 0.07856886806578928 0.09975701034244476 -0.001674375
v 0.06476306538411206 0.1925189197036164 -0.009150625
v 0.08104258204038682 0.10019319285872189 -0.004575625
v 0.06904821011940643 0.19327450633668963 -0.0125
v 0.08532772677568119 0.10094877949179512 -0.00625
v 0.07399563806860152 0.19414687136924388 -0.0125
v 0.09027515472487627 0.10182114452434936 -0.00625
v 0.07828078280389589 0.19490245800231712 -0.009150625
v 0.09456029946017064 0.1025767311574226 -0.004575625
v 0.08075449677849342 0.19533864051859423 -0.003349375
v 0.09703401343476818 0.10301291367369972 -0.001674375
v 0.08075449677849342 0.19533864051859423 0.003349375
v 0.09703401343476818 0.10301291367369972 0.001674375
v 0.07828078280389589 0.19490245800231712 0.009150625
v 0.09456029946017064 0.1025767311574226 0.004575625
v 0.07399563806860152 0.19414687136924388 0.0125
v 0.09027515472487627 0.10182114452434936 0.00625
vt 0.51905625 0.354575
vt 0.51688125 0.35624999999999996
vt 0.515625 0.35
vt 0.234238125 0.71875
vt 0.2343196875 0.6875
vt 0.28125 0.6875
vt 0.2812084375 0.7182415625
vt 0.07938125 0.3375
vt 0.08155625 0.33833749999999996
vt 0.078125 0.34062499999999996
vt 0.5203125 0.35167499999999996
vt 0.51905625 0.354575
vt 0.515625 0.35
vt 0.510790625 0.67186875
vt 0.51395 0.6718640625000001
vt 0.5147875 0.7187378125
vt 0.51295625 0.718746875
vt 0.08155625 0.33833749999999996
vt 0.0828125 0.3397875
vt 0.078125 0.34062499999999996
vt 0.5203125 0.348325
vt 0.5203125 0.35167499999999996
vt 0.515625 0.35
vt 0.51395 0.6718640625000001
vt 0.5173 0.6718640625000001
vt 0.5164625 0.7187390625000001
vt 0.5147875 0.7187390625000001
vt 0.0828125 0.3397875
vt 0.0828125 0.3414625
vt 0.078125 0.34062499999999996
vt 0.51905625 0.345425
vt 0.5203125 0.348325
vt 0.515625 0.35
vt 0.5173 0.6718640625000001
vt 0.520459375 0.67186875
vt 0.51829375 0.71875
vt 0.5164625 0.7187346875
vt 0.0828125 0.3414625
vt 0.08155625 0.34291249999999995
vt 0.078125 0.34062499999999996
vt 0.51688125 0.34375
vt 0.51905625 0.345425
vt 0.515625 0.35
vt 0.28125 0.953075625
vt 0.3125 0.952964375
vt 0.3125 0.99994375
vt 0.2817575 1
vt 0.08155625 0.34291249999999995
vt 0.07938125 0.34375
vt 0.078125 0.34062499999999996
vt 0.51436875 0.34375
vt 0.51688125 0.34375
vt 0.515625 0.35
vt 0.15625 0.9375
vt 0.1875 0.9375
vt 0.1875 1
vt 0.15625 1
vt 0.07938125 0.34375
vt 0.07686875 0.34375
vt 0.078125 0.34062499999999996
vt 0.51219375 0.345425
vt 0.51436875 0.34375
vt 0.515625 0.35
vt 0.327988125 0.84375
vt 0.3280696875 0.8125
vt 0.375 0.8125
vt 0.3749584375 0.8432415625
vt 0.07686875 0.34375
vt 0.07469375 0.34291249999999995
vt 0.078125 0.34062499999999996
vt 0.5109375 0.348325
vt 0.51219375 0.345425
vt 0.515625 0.35
vt 0.448290625 0.45311875
vt 0.45145 0.45311406249999997
vt 0.4522875 0.4999878125
vt 0.45045625 0.499996875
vt 0.07469375 0.34291249999999995
vt 0.0734375 0.3414625
vt 0.078125 0.34062499999999996
vt 0.5109375 0.35167499999999996
vt 0.5109375 0.348325
vt 0.515625 0.35
vt 0.45145 0.45311406249999997
vt 0.4548 0.45311406249999997
vt 0.4539625 0.49998906249999997
vt 0.4522875 0.49998906249999997
vt 0.0734375 0.3414625
vt 0.0734375 0.3397875
vt 0.078125 0.34062499999999996
vt 0.51219375 0.354575
vt 0.5109375 0.35167499999999996
vt 0.515625 0.35
vt 0.4548 0.45311406249999997
vt 0.457959375 0.45311875
vt 0.45579375 0.5
vt 0.4539625 0.4999846875
vt 0.0734375 0.3397875
vt 0.07469375 0.33833749999999996
vt 0.078125 0.34062499999999996
vt 0.51436875 0.35624999999999996
vt 0.51219375 0.354575
vt 0.515625 0.35
vt 0.0625 0.671825625
vt 0.09375 0.671714375
vt 0.09375 0.71869375
vt 0.0630075 0.71875
vt 0.07469375 0.33833749999999996
vt 0.07686875 0.3375
vt 0.078125 0.34062499999999996
vt 0.51688125 0.35624999999999996
vt 0.51436875 0.35624999999999996
vt 0.515625 0.35
vt 0.15625 0.84375
vt 0.1875 0.84375
vt 0.1875 0.90625
vt 0.15625 0.90625
vt 0.07686875 0.3375
vt 0.07938125 0.3375
vt 0.078125 0.34062499999999996
vn -0.17364817766693072 0.9848077530122081 0
vn -0.5935437957733145 -0.14389535467282957 0.791833245956866
vn 0.17364817766693072 -0.9848077530122081 0
vn -0.17364817766693072 0.9848077530122081 0
vn -0.9024740249373134 -0.16633901471604953 0.3973310540301872
vn 0.17364817766693072 -0.9848077530122081 0
vn -0.17364817766693072 0.9848077530122081 0
vn -0.9848077530122081 -0.17364817766693072 0
vn 0.17364817766693072 -0.9848077530122081 0
vn -0.17364817766693072 0.9848077530122081 0
vn -0.900193229726271 -0.1784140236780346 -0.39726639086386206
vn 0.17364817766693072 -0.9848077530122081 0
vn -0.17364817766693072 0.9848077530122081 0
vn -0.5907052057765511 -0.15772586770552013 -0.7913216226826003
vn 0.17364817766693072 -0.9848077530122081 0
vn -0.17364817766693072 0.9848077530122081 0
vn 0.011550904957660731 -0.06550843728651323 -0.9977851578566089
vn 0.17364817766693072 -0.9848077530122081 0
vn -0.17364817766693072 0.9848077530122081 0
vn 0.606963834830541 0.06778653114902189 -0.7918332459568659
vn 0.17364817766693072 -0.9848077530122081 0
vn -0.17364817766693072 0.9848077530122081 0
vn 0.9049394753383848 0.15235675067928334 -0.39733105403018737
vn 0.17364817766693072 -0.9848077530122081 0
vn -0.17364817766693072 0.9848077530122081 0
vn 0.9848077530122081 0.17364817766693072 0
vn 0.17364817766693072 -0.9848077530122081 0
vn -0.17364817766693072 0.9848077530122081 0
vn 0.9069261252048815 0.14022987595680503 0.39726639086386234
vn 0.17364817766693072 -0.9848077530122081 0
vn -0.17364817766693072 0.9848077530122081 0
vn 0.6090267468068541 0.05381924515298338 0.7913216226826001
vn 0.17364817766693072 -0.9848077530122081 0
vn -0.17364817766693072 0.9848077530122081 0
vn 0.011550904957660731 -0.06550843728651323 0.9977851578566089
vn 0.17364817766693072 -0.9848077530122081 0
usemtl m_f4b4f503-87d7-6933-58d7-43351d66bd6b
f 5/1/1 3/2/1 1/3/1
f 3/4/2 5/5/2 6/6/2 4/7/2
f 4/8/3 6/9/3 2/10/3
f 7/11/4 5/12/4 1/13/4
f 5/14/5 7/15/5 8/16/5 6/17/5
f 6/18/6 8/19/6 2/20/6
f 9/21/7 7/22/7 1/23/7
f 7/24/8 9/25/8 10/26/8 8/27/8
f 8/28/9 10/29/9 2/30/9
f 11/31/10 9/32/10 1/33/10
f 9/34/11 11/35/11 12/36/11 10/37/11
f 10/38/12 12/39/12 2/40/12
f 13/41/13 11/42/13 1/43/13
f 11/44/14 13/45/14 14/46/14 12/47/14
f 12/48/15 14/49/15 2/50/15
f 15/51/16 13/52/16 1/53/16
f 13/54/17 15/55/17 16/56/17 14/57/17
f 14/58/18 16/59/18 2/60/18
f 17/61/19 15/62/19 1/63/19
f 15/64/20 17/65/20 18/66/20 16/67/20
f 16/68/21 18/69/21 2/70/21
f 19/71/22 17/72/22 1/73/22
f 17/74/23 19/75/23 20/76/23 18/77/23
f 18/78/24 20/79/24 2/80/24
f 21/81/25 19/82/25 1/83/25
f 19/84/26 21/85/26 22/86/26 20/87/26
f 20/88/27 22/89/27 2/90/27
f 23/91/28 21/92/28 1/93/28
f 21/94/29 23/95/29 24/96/29 22/97/29
f 22/98/30 24/99/30 2/100/30
f 25/101/31 23/102/31 1/103/31
f 23/104/32 25/105/32 26/106/32 24/107/32
f 24/108/33 26/109/33 2/110/33
f 3/111/34 25/112/34 1/113/34
f 25/114/35 3/115/35 4/116/35 26/117/35
f 26/118/36 4/119/36 2/120/36